<mxfile host="app.diagrams.net" agent="Mozilla/5.0 (Windows NT 10.0; Win64; x64) AppleWebKit/537.36 (KHTML, like Gecko) Chrome/135.0.0.0 Safari/537.36" version="26.2.13">
  <diagram name="PÃ¡gina-1" id="UmKm4jtr9c7o3l0JzbI-">
    <mxGraphModel grid="1" page="1" gridSize="10" guides="1" tooltips="1" connect="1" arrows="1" fold="1" pageScale="1" pageWidth="827" pageHeight="1169" math="0" shadow="0">
      <root>
        <mxCell id="0" />
        <mxCell id="1" parent="0" />
        <mxCell id="ye665GXhxuxKsuNR22QF-3" value="" style="whiteSpace=wrap;html=1;aspect=fixed;fillColor=#dae8fc;strokeColor=#6c8ebf;gradientColor=#7ea6e0;" vertex="1" parent="1">
          <mxGeometry x="365" y="30" width="70" height="70" as="geometry" />
        </mxCell>
        <mxCell id="ye665GXhxuxKsuNR22QF-38" value="Usuario" style="text;html=1;align=center;verticalAlign=middle;resizable=0;points=[];autosize=1;strokeColor=#6c8ebf;fillColor=#dae8fc;gradientColor=#7ea6e0;" vertex="1" parent="1">
          <mxGeometry x="370" y="130" width="60" height="30" as="geometry" />
        </mxCell>
        <mxCell id="BIEOxJ8hz9UbeZRnLNLm-1" value="" style="shape=actor;whiteSpace=wrap;html=1;" vertex="1" parent="1">
          <mxGeometry x="380" y="40" width="40" height="50" as="geometry" />
        </mxCell>
        <mxCell id="BIEOxJ8hz9UbeZRnLNLm-2" value="" style="line;strokeWidth=2;direction=south;html=1;" vertex="1" parent="1">
          <mxGeometry x="395" y="100" width="10" height="30" as="geometry" />
        </mxCell>
        <mxCell id="BIEOxJ8hz9UbeZRnLNLm-3" value="Aplicacion Web&lt;div&gt;&lt;br&gt;&lt;/div&gt;" style="text;html=1;align=center;verticalAlign=middle;resizable=0;points=[];autosize=1;strokeColor=#b85450;fillColor=#f8cecc;gradientColor=#ea6b66;" vertex="1" parent="1">
          <mxGeometry x="345" y="220" width="110" height="40" as="geometry" />
        </mxCell>
        <mxCell id="BIEOxJ8hz9UbeZRnLNLm-4" value="" style="line;strokeWidth=2;direction=south;html=1;" vertex="1" parent="1">
          <mxGeometry x="395" y="160" width="10" height="60" as="geometry" />
        </mxCell>
        <mxCell id="BIEOxJ8hz9UbeZRnLNLm-6" value="" style="line;strokeWidth=2;direction=south;html=1;" vertex="1" parent="1">
          <mxGeometry x="180" y="240" width="10" height="80" as="geometry" />
        </mxCell>
        <mxCell id="BIEOxJ8hz9UbeZRnLNLm-8" value="" style="line;strokeWidth=2;html=1;" vertex="1" parent="1">
          <mxGeometry x="185" y="235" width="160" height="10" as="geometry" />
        </mxCell>
        <mxCell id="BIEOxJ8hz9UbeZRnLNLm-9" value="" style="whiteSpace=wrap;html=1;aspect=fixed;fillColor=#dae8fc;strokeColor=#6c8ebf;gradientColor=#7ea6e0;" vertex="1" parent="1">
          <mxGeometry x="490" y="320" width="240" height="240" as="geometry" />
        </mxCell>
        <mxCell id="BIEOxJ8hz9UbeZRnLNLm-10" value="&lt;div&gt;Back END&lt;/div&gt;" style="text;html=1;align=center;verticalAlign=middle;resizable=0;points=[];autosize=1;strokeColor=#b85450;fillColor=#f8cecc;gradientColor=#ea6b66;" vertex="1" parent="1">
          <mxGeometry x="565" y="335" width="80" height="30" as="geometry" />
        </mxCell>
        <mxCell id="BIEOxJ8hz9UbeZRnLNLm-11" value="PYTHON" style="text;html=1;align=center;verticalAlign=middle;resizable=0;points=[];autosize=1;strokeColor=#b85450;fillColor=#f8cecc;gradientColor=#ea6b66;" vertex="1" parent="1">
          <mxGeometry x="510" y="395" width="70" height="30" as="geometry" />
        </mxCell>
        <mxCell id="BIEOxJ8hz9UbeZRnLNLm-12" value="API REST" style="text;html=1;align=center;verticalAlign=middle;resizable=0;points=[];autosize=1;strokeColor=#b85450;fillColor=#f8cecc;gradientColor=#ea6b66;" vertex="1" parent="1">
          <mxGeometry x="645" y="395" width="80" height="30" as="geometry" />
        </mxCell>
        <mxCell id="BIEOxJ8hz9UbeZRnLNLm-22" value="" style="whiteSpace=wrap;html=1;aspect=fixed;fillColor=#dae8fc;strokeColor=#6c8ebf;gradientColor=#7ea6e0;" vertex="1" parent="1">
          <mxGeometry x="65" y="320" width="240" height="240" as="geometry" />
        </mxCell>
        <mxCell id="BIEOxJ8hz9UbeZRnLNLm-23" value="&lt;div&gt;Front END&lt;/div&gt;" style="text;html=1;align=center;verticalAlign=middle;resizable=0;points=[];autosize=1;strokeColor=#b85450;fillColor=#f8cecc;gradientColor=#ea6b66;" vertex="1" parent="1">
          <mxGeometry x="140" y="335" width="80" height="30" as="geometry" />
        </mxCell>
        <mxCell id="BIEOxJ8hz9UbeZRnLNLm-24" value="&lt;div&gt;HTML&lt;/div&gt;" style="text;html=1;align=center;verticalAlign=middle;resizable=0;points=[];autosize=1;strokeColor=#b85450;fillColor=#f8cecc;gradientColor=#ea6b66;" vertex="1" parent="1">
          <mxGeometry x="90" y="395" width="60" height="30" as="geometry" />
        </mxCell>
        <mxCell id="BIEOxJ8hz9UbeZRnLNLm-25" value="CSS" style="text;html=1;align=center;verticalAlign=middle;resizable=0;points=[];autosize=1;strokeColor=#b85450;fillColor=#f8cecc;gradientColor=#ea6b66;" vertex="1" parent="1">
          <mxGeometry x="230" y="395" width="50" height="30" as="geometry" />
        </mxCell>
        <mxCell id="BIEOxJ8hz9UbeZRnLNLm-26" value="JavaScript" style="text;html=1;align=center;verticalAlign=middle;resizable=0;points=[];autosize=1;strokeColor=#b85450;fillColor=#f8cecc;gradientColor=#ea6b66;" vertex="1" parent="1">
          <mxGeometry x="140" y="475" width="80" height="30" as="geometry" />
        </mxCell>
        <mxCell id="BIEOxJ8hz9UbeZRnLNLm-28" value="" style="line;strokeWidth=2;html=1;" vertex="1" parent="1">
          <mxGeometry x="455" y="235" width="155" height="10" as="geometry" />
        </mxCell>
        <mxCell id="BIEOxJ8hz9UbeZRnLNLm-29" value="" style="line;strokeWidth=2;direction=south;html=1;" vertex="1" parent="1">
          <mxGeometry x="605" y="240" width="10" height="80" as="geometry" />
        </mxCell>
      </root>
    </mxGraphModel>
  </diagram>
</mxfile>
